<svg width="24" height="24" viewBox="0 0 24 24" fill="none" xmlns="http://www.w3.org/2000/svg">
<path fill-rule="evenodd" clip-rule="evenodd" d="M13.5789 3.57895C13.5789 2.70692 12.872 2 12 2C11.128 2 10.4211 2.70692 10.4211 3.57895V10.4211H3.57895C2.70692 10.4211 2 11.128 2 12C2 12.872 2.70692 13.5789 3.57895 13.5789H10.4211V20.4211C10.4211 21.2931 11.128 22 12 22C12.872 22 13.5789 21.2931 13.5789 20.4211V13.5789H20.4211C21.2931 13.5789 22 12.872 22 12C22 11.128 21.2931 10.4211 20.4211 10.4211H13.5789V3.57895Z"/>
</svg>
